<?xml version="1.0" encoding="UTF-8"?>
<svg xmlns="http://www.w3.org/2000/svg" viewBox="0 0 1000 1000">
  <defs>
    <style>
      .uuid-0f846531-1306-4a40-8358-d1c93df349d1 {
        fill: #29455c;
      }

      .uuid-0f846531-1306-4a40-8358-d1c93df349d1, .uuid-ad88c0fd-eae1-4403-bf32-796ede4c141d, .uuid-e47c8f3f-fa86-490d-97ef-e767e05d2c61, .uuid-c54b9a29-c0f0-4ebf-9ea4-8fd206bc3512, .uuid-c1c4aff3-be10-4760-9bec-0fe7832ad356, .uuid-5e240b75-acb1-45b9-9306-147d5e629b10, .uuid-0bd6d094-ca06-41f1-a1ce-8cb6d802c31e, .uuid-8601ab72-de28-421f-a8fd-b5a53bf9103b, .uuid-319f2f5f-29fd-4840-9236-e3a7f80fe9cf, .uuid-9d14bc0f-859e-4076-963f-e3c6970a3f01, .uuid-9c7bdef7-8eba-42e4-8663-8361b81deb10, .uuid-917733c3-192e-4c8e-98af-a5131ed21db6, .uuid-5a9f74d0-5a62-4d8d-a7f6-02d08e00e6c3, .uuid-ad029cb4-5a02-47c5-870c-74603bf2a046, .uuid-1ca705ff-ac33-4765-b117-9b8d88450fb5, .uuid-a8b0cbc5-84ba-4a2e-a333-0a15d6461a01, .uuid-b2fcc36c-ca2a-47b8-9198-758e57888572, .uuid-16b3e1f2-5743-4163-9d0f-3cb35fc73d17, .uuid-1afbfef6-fc00-41f5-a6f8-95e0e479fd57, .uuid-b8875b0a-06e4-4038-b16f-f51f51b3205a, .uuid-62ffa4d7-c5d2-4af0-b2bb-67e9655cfbd9, .uuid-035c973c-8871-4cdd-b3a5-2950289ff0b1, .uuid-110c8607-0459-4772-aa3e-2bef330ad464, .uuid-741b6534-b9a3-49a8-afd2-c2fbde8437da, .uuid-2afea694-78a7-4375-bf13-282a02b1d4fb, .uuid-5ce9fcb2-1de3-44c4-bc69-ddaa979bc051, .uuid-eaee6762-077e-4de6-ad5f-e3dddd286b47, .uuid-7de17fde-bf62-4454-9be1-3753d48c9d51, .uuid-1e59c552-0356-467e-8b2f-6ce54dfb66eb, .uuid-a6d427be-d24b-437a-8579-24dba9af710b {
        stroke-width: 0px;
      }

      .uuid-ad88c0fd-eae1-4403-bf32-796ede4c141d {
        fill: #d09271;
      }

      .uuid-e47c8f3f-fa86-490d-97ef-e767e05d2c61 {
        fill: #e6b48f;
      }

      .uuid-c54b9a29-c0f0-4ebf-9ea4-8fd206bc3512 {
        fill: #c2e5ff;
      }

      .uuid-c54b9a29-c0f0-4ebf-9ea4-8fd206bc3512, .uuid-fe2c4515-a7b0-4b06-93e1-f790fd464e2b {
        opacity: .5;
      }

      .uuid-c1c4aff3-be10-4760-9bec-0fe7832ad356 {
        fill: #222;
      }

      .uuid-5e240b75-acb1-45b9-9306-147d5e629b10 {
        fill: #dea481;
      }

      .uuid-0bd6d094-ca06-41f1-a1ce-8cb6d802c31e {
        fill: #307999;
      }

      .uuid-8601ab72-de28-421f-a8fd-b5a53bf9103b {
        fill: #ce5b5b;
      }

      .uuid-9d14bc0f-859e-4076-963f-e3c6970a3f01 {
        fill: #b74242;
      }

      .uuid-9c7bdef7-8eba-42e4-8663-8361b81deb10 {
        fill: #ea7d7d;
      }

      .uuid-917733c3-192e-4c8e-98af-a5131ed21db6 {
        fill: #67daff;
      }

      .uuid-5a9f74d0-5a62-4d8d-a7f6-02d08e00e6c3 {
        fill: #d66767;
      }

      .uuid-ad029cb4-5a02-47c5-870c-74603bf2a046 {
        fill: #3890c1;
      }

      .uuid-1ca705ff-ac33-4765-b117-9b8d88450fb5 {
        fill: #fff;
      }

      .uuid-a8b0cbc5-84ba-4a2e-a333-0a15d6461a01 {
        fill: #479cd6;
      }

      .uuid-b2fcc36c-ca2a-47b8-9198-758e57888572 {
        fill: #35599a;
      }

      .uuid-16b3e1f2-5743-4163-9d0f-3cb35fc73d17 {
        fill: #398dbc;
      }

      .uuid-1afbfef6-fc00-41f5-a6f8-95e0e479fd57 {
        fill: #f4f4f4;
      }

      .uuid-b8875b0a-06e4-4038-b16f-f51f51b3205a {
        fill: #deffff;
      }

      .uuid-62ffa4d7-c5d2-4af0-b2bb-67e9655cfbd9 {
        fill: #353535;
      }

      .uuid-035c973c-8871-4cdd-b3a5-2950289ff0b1 {
        fill: #cadbe8;
      }

      .uuid-110c8607-0459-4772-aa3e-2bef330ad464 {
        fill: #95cefc;
      }

      .uuid-741b6534-b9a3-49a8-afd2-c2fbde8437da {
        fill: #e1f1ff;
      }

      .uuid-2afea694-78a7-4375-bf13-282a02b1d4fb {
        fill: #71b3f4;
      }

      .uuid-5ce9fcb2-1de3-44c4-bc69-ddaa979bc051 {
        fill: #d9dcf5;
      }

      .uuid-eaee6762-077e-4de6-ad5f-e3dddd286b47 {
        fill: #e1f9f9;
      }

      .uuid-7de17fde-bf62-4454-9be1-3753d48c9d51 {
        fill: #fcfcfc;
      }

      .uuid-1e59c552-0356-467e-8b2f-6ce54dfb66eb {
        fill: #f2f2f2;
      }

      .uuid-a6d427be-d24b-437a-8579-24dba9af710b {
        fill: #db6b6b;
      }
    </style>
  </defs>
  <g id="uuid-b16cd239-3192-4f31-b5ac-57d41c7d2f7b" data-name="‘ëîé_2">
    <rect class="uuid-1ca705ff-ac33-4765-b117-9b8d88450fb5" width="1000" height="1000"/>
    <path class="uuid-c54b9a29-c0f0-4ebf-9ea4-8fd206bc3512" d="m377.2,729.04c47.08,70.58,115.75,150.44,206.13,159.85,67.59,7.04,125.82-33.13,164.49-85.44,19.64-26.57,43.27-61.68,38.51-96.53-3.22-23.58-20.16-41.7-29.28-62.98-14.14-33.01-8.51-70.5,5.66-102.63,15.42-34.97,43.72-53.52,69.97-79.16,53.7-52.44,26.73-162.35-11.1-215.97-51.18-72.55-91.03,16.97-132.18-2.55-44.89-21.3-57.25-105.2-82.6-119.6-42.97-24.4-119.75-9.12-168.8-7.8-59.11,1.6-103.9,141.25-161.71,156.66-21.56,5.75-45.81,8.94-61.53,26.17-14.05,15.39-19.86,37.03-22.84,57.14-7.77,52.44,4.19,105.84,7.8,158.18,3.89,56.31,17.34,98.45,64.24,132.58,36.01,26.21,87.76,43.88,113.23,82.07Z"/>
  </g>
  <g id="uuid-f64220dc-11e5-41f6-9cd1-0bd26f7e7e56" data-name="‘ëîé_4">
    <path class="uuid-2afea694-78a7-4375-bf13-282a02b1d4fb" d="m660.74,629.32l185.84-64c-3.22-21.81-54.91,12.18-67.47,3.39-12.72-8.89,24.52-30.74,4.89-30.02-18.34.67-51.38,52.28-70.94,48.81-19.56-3.47,23.61-35.64-1.2-35.48-24.72.15-63.18,49.91-51.11,77.3Z"/>
    <path class="uuid-a8b0cbc5-84ba-4a2e-a333-0a15d6461a01" d="m846.58,565.32l-185.84,64c.04.1.08.19.12.28,12.3,27.36,56.48,48.65,78.11,30.83,21.63-17.82-41.74-19.01-16.55-33.86,25.19-14.85,69.87,15.88,88.08.77,18.21-15.11-38.18-16.48-16.22-27.21,21.96-10.73,54.44-10.5,52.4-33.98-.02-.29-.06-.56-.1-.83Z"/>
    <rect class="uuid-16b3e1f2-5743-4163-9d0f-3cb35fc73d17" x="622.68" y="605.77" width="201.26" height="4" transform="translate(-158.48 268.64) rotate(-19)"/>
    <path class="uuid-16b3e1f2-5743-4163-9d0f-3cb35fc73d17" d="m785.1,622.54c-3.58-.62-8.2-1.62-12.97-3.19-5.96-1.96-10.89-4.42-14.66-7.31-4.9-3.75-7.86-8.22-8.81-13.31-1.66-8.87,1.98-19.97,10.8-32.98,6.45-9.51,13.25-16.42,13.54-16.71l2.84,2.81c-.27.27-26.77,27.31-23.25,46.14.76,4.08,3.22,7.74,7.31,10.87,3.42,2.61,7.95,4.86,13.48,6.69,9.55,3.15,18.75,3.91,18.85,3.92l-.32,3.99c-.21-.02-2.88-.24-6.81-.92Z"/>
    <path class="uuid-16b3e1f2-5743-4163-9d0f-3cb35fc73d17" d="m721.7,655.73c-.37-.08-9.26-2.1-19.03-7.06-5.78-2.94-10.66-6.3-14.5-10-4.89-4.71-8.11-9.99-9.57-15.67-1.44-5.62-1.41-12.08.09-19.19,1.18-5.6,3.28-11.62,6.23-17.9,4.99-10.64,10.65-18.28,10.89-18.6l3.21,2.39c-.06.08-5.68,7.68-10.5,17.97-4.37,9.34-8.97,22.88-6.04,34.33,5.61,21.88,39.75,29.74,40.1,29.82l-.87,3.9Z"/>
    <path class="uuid-2afea694-78a7-4375-bf13-282a02b1d4fb" d="m671.44,594.3l97.64-118.73c-13.38-15.52-27.77,25.91-36.92,25.28-9.15-.62,1.14-14.63-13.37-12.99-16.95,1.91-14.67,39.64-23.92,45.92-9.25,6.28-2.9-15.57-17.5-16.42-14.6-.85-29.03,61.45-5.92,76.95Z"/>
    <path class="uuid-a8b0cbc5-84ba-4a2e-a333-0a15d6461a01" d="m769.08,475.57l-97.64,118.73c.08.06.16.11.24.16,23.26,15.36,69.93-10.3,68.3-23.2-1.63-12.9-26.57,7.15-12.8-16.27,5.2-8.84,35.03-4.99,40.22-18.67,5.19-13.68-32.71,4.78-13.34-23.7,12.77-18.78,28.78-19.02,15.49-36.44-.16-.21-.33-.41-.49-.6Z"/>
    <rect class="uuid-16b3e1f2-5743-4163-9d0f-3cb35fc73d17" x="619.94" y="550.6" width="172.76" height="4" transform="translate(-169.14 747.07) rotate(-50.56)"/>
    <path class="uuid-16b3e1f2-5743-4163-9d0f-3cb35fc73d17" d="m727.4,544.44c-4.16-.72-7.33-2.49-9.43-5.28-3.45-4.57-5.12-12.31-4.99-23,.1-7.77,1.14-14.18,1.18-14.45l3.95.65c-.01.06-1.04,6.43-1.13,13.9-.12,9.61,1.33,16.7,4.18,20.49,3.6,4.77,11.66,4.47,17.79,3.37,7.05-1.26,13.26-3.86,13.32-3.89l1.56,3.68c-.27.11-6.62,2.78-14.11,4.13-4.48.81-8.44.97-11.77.47-.19-.03-.37-.06-.55-.09Z"/>
    <path class="uuid-16b3e1f2-5743-4163-9d0f-3cb35fc73d17" d="m694.94,586.49c-4.62-.8-8.87-2.76-12.62-5.85-3.93-3.25-6.9-7.74-8.81-13.36-1.5-4.39-2.36-9.49-2.55-15.14-.33-9.53,1.31-17.3,1.38-17.63l3.91.84c-.06.3-6.22,29.95,8.62,42.19,6.08,5.02,13.44,6.52,21.89,4.48,6.48-1.57,11.2-4.74,11.25-4.77l2.25,3.3c-.21.14-5.27,3.57-12.43,5.33-4.51,1.11-8.84,1.3-12.89.6Z"/>
    <path class="uuid-a8b0cbc5-84ba-4a2e-a333-0a15d6461a01" d="m384.52,422.88l-226.86-80.42c44.16,121,186.76,124.92,226.86,80.42Z"/>
    <path class="uuid-2afea694-78a7-4375-bf13-282a02b1d4fb" d="m157.66,342.46l226.86,80.42c.08-.09.16-.18.25-.28-7.05-49.45-114.11-153.73-227.25-80.56.05.14.1.28.15.42Z"/>
    <rect class="uuid-16b3e1f2-5743-4163-9d0f-3cb35fc73d17" x="289.91" y="291.78" width="4" height="196.62" transform="translate(-173.23 535.1) rotate(-70.51)"/>
    <rect class="uuid-16b3e1f2-5743-4163-9d0f-3cb35fc73d17" x="212.6" y="380.87" width="38.02" height="4" transform="translate(-141.01 135.11) rotate(-25.21)"/>
    <rect class="uuid-16b3e1f2-5743-4163-9d0f-3cb35fc73d17" x="247.22" y="332.62" width="4" height="48.96" transform="translate(-135.57 153.22) rotate(-27.17)"/>
    <rect class="uuid-16b3e1f2-5743-4163-9d0f-3cb35fc73d17" x="254.03" y="409.95" width="67.74" height="4" transform="translate(-128.25 130.16) rotate(-20.95)"/>
    <rect class="uuid-16b3e1f2-5743-4163-9d0f-3cb35fc73d17" x="307.3" y="345.86" width="4" height="61.14" transform="translate(-154.92 228.55) rotate(-32.92)"/>
    <path class="uuid-a8b0cbc5-84ba-4a2e-a333-0a15d6461a01" d="m376.62,423.1l-140.86-146.65c-12.48,108.1,93.72,165.08,140.86,146.65Z"/>
    <path class="uuid-2afea694-78a7-4375-bf13-282a02b1d4fb" d="m235.76,276.45l140.86,146.65c.1-.04.19-.08.29-.11,13.4-40.01-27.95-159.31-141.1-146.91-.01.12-.03.25-.04.37Z"/>
    <rect class="uuid-16b3e1f2-5743-4163-9d0f-3cb35fc73d17" x="317.1" y="280.21" width="4" height="166.11" transform="translate(-162.7 322.54) rotate(-43.87)"/>
    <rect class="uuid-16b3e1f2-5743-4163-9d0f-3cb35fc73d17" x="274.3" y="318.91" width="4" height="32.12" transform="translate(-65.44 602.85) rotate(-88.57)"/>
    <rect class="uuid-16b3e1f2-5743-4163-9d0f-3cb35fc73d17" x="297.36" y="301.5" width="4" height="41.37" transform="translate(-3 2.81) rotate(-.54)"/>
    <rect class="uuid-16b3e1f2-5743-4163-9d0f-3cb35fc73d17" x="305.8" y="349.64" width="4" height="57.23" transform="translate(-99.1 647.04) rotate(-84.31)"/>
    <rect class="uuid-16b3e1f2-5743-4163-9d0f-3cb35fc73d17" x="335.4" y="333.71" width="4" height="51.66" transform="translate(-37.34 39.11) rotate(-6.29)"/>
    <g>
      <path class="uuid-319f2f5f-29fd-4840-9236-e3a7f80fe9cf" d="m647.07,477.22l-.68-1.88c1.89-.68,4.03-1.42,6.3-2.21l.79-.27.66,1.89-.79.27c-2.26.78-4.4,1.53-6.28,2.2Z"/>
      <path class="uuid-319f2f5f-29fd-4840-9236-e3a7f80fe9cf" d="m682.29,464.07l-.78-1.84c4.65-1.98,9.23-4.07,13.62-6.21l.88,1.8c-4.42,2.16-9.03,4.26-13.71,6.26Zm40.02-20.96l-1.08-1.69c4.21-2.68,8.37-5.51,12.36-8.42l1.18,1.62c-4.03,2.93-8.22,5.78-12.46,8.49Zm35.71-27.68l-1.37-1.46c.54-.51,1.08-1.02,1.62-1.53,3-2.86,5.91-5.97,8.65-9.24l1.53,1.29c-2.79,3.32-5.75,6.49-8.8,9.4-.54.52-1.09,1.04-1.64,1.55Zm27-36.2l-1.78-.91c2.22-4.36,4.26-8.94,6.08-13.62l1.86.72c-1.84,4.74-3.92,9.38-6.16,13.8Zm14.48-42.81l-1.96-.38c.93-4.84,1.67-9.81,2.2-14.77l1.99.21c-.53,5.01-1.28,10.04-2.23,14.93Zm.96-44.98c-.28-4.95-.77-9.95-1.45-14.86l1.98-.27c.69,4.96,1.18,10.02,1.47,15.03l-2,.11Zm-243.66-30.61v-2c4.74-.01,9.62-.76,14.5-2.21l.57,1.92c-5.07,1.51-10.14,2.28-15.07,2.29Zm-28.65-9.39c-4.02-3.15-7.38-7.05-9.98-11.6l1.73-1c2.48,4.32,5.67,8.03,9.48,11.02l-1.23,1.57Zm264.36-3.99c-1.48-4.75-3.17-9.48-5.03-14.06l1.85-.75c1.88,4.63,3.59,9.42,5.08,14.22l-1.91.59Zm-194.24-3.65l-1.29-1.53c3.73-3.16,7.26-6.69,10.49-10.5l1.53,1.29c-3.3,3.89-6.91,7.51-10.73,10.74Zm-84.47-33.38l-2-.1c.26-5.05,1.1-10.1,2.48-15.01l1.92.54c-1.34,4.76-2.15,9.67-2.41,14.57Zm110.61-3.39l-1.88-.69c1.78-4.82,2.99-9.63,3.6-14.32l1.98.26c-.63,4.84-1.87,9.8-3.71,14.76Zm149.27-.03c-2.7-4.02-5.7-8.04-8.92-11.96l1.54-1.27c3.26,3.97,6.3,8.04,9.03,12.12l-1.66,1.11Zm-29.75-33.33c-3.7-3.24-7.6-6.41-11.6-9.43l1.2-1.6c4.04,3.05,7.98,6.25,11.71,9.52l-1.32,1.5Zm-213.33-3.36l-1.49-1.33c3.18-3.55,6.88-7.07,10.98-10.46l1.27,1.54c-4.02,3.32-7.64,6.77-10.76,10.25Zm89.93-6.33c-2.5-3.74-5.84-7.37-9.92-10.81l1.29-1.53c4.22,3.56,7.69,7.34,10.29,11.23l-1.66,1.11Zm86.75-16.06c-4.36-2.43-8.84-4.73-13.3-6.83l.85-1.81c4.51,2.12,9.03,4.44,13.43,6.89l-.97,1.75Zm-141.1-4.41l-.97-1.75c3.86-2.14,8.07-4.34,12.85-6.7-2.22-.86-4.51-1.7-6.85-2.51l.65-1.89c4.96,1.71,9.7,3.56,14.08,5.49l-.81,1.83c-2.02-.89-4.11-1.76-6.27-2.61l.6,1.22c-4.97,2.45-9.31,4.71-13.29,6.92Zm-214.16-1.09l-.83-1.82c4.57-2.09,9.23-4.08,13.86-5.92l.74,1.86c-4.6,1.83-9.23,3.81-13.77,5.88Zm314.05-11.98c-4.87-1.43-9.74-2.63-14.5-3.57l.39-1.96c4.81.95,9.75,2.17,14.67,3.61l-.56,1.92Zm-271.95-3.53l-.54-1.92c4.83-1.36,9.75-2.61,14.61-3.71l.44,1.95c-4.83,1.09-9.71,2.33-14.51,3.68Zm213.06-.92l-.39-1.96c4.77-.94,9.84-1.52,15.07-1.72l.08,2c-5.12.19-10.08.76-14.75,1.68Zm-64.81-1.44c-4.77-1.05-9.72-2.01-14.7-2.86l.34-1.97c5.02.86,10,1.83,14.8,2.88l-.43,1.95Zm-104.24-6.28l-.22-1.99c4.98-.56,10.03-.98,15.02-1.26l.11,2c-4.95.28-9.97.7-14.91,1.25Zm59.81-.39c-5-.43-10.03-.76-14.96-.97l.09-2c4.95.22,10.01.55,15.04.98l-.17,1.99Z"/>
      <path class="uuid-319f2f5f-29fd-4840-9236-e3a7f80fe9cf" d="m319.01,159.99l-1.04-1.71c2.14-1.3,4.31-2.6,6.47-3.84l1,1.73c-2.14,1.24-4.3,2.52-6.43,3.82Z"/>
    </g>
    <path class="uuid-62ffa4d7-c5d2-4af0-b2bb-67e9655cfbd9" d="m261.04,259.51c.39,0,.39-.6,0-.6s-.39.6,0,.6h0Z"/>
    <polygon class="uuid-2afea694-78a7-4375-bf13-282a02b1d4fb" points="293.56 144.1 297.15 154.72 256.55 196.46 293.56 144.1"/>
    <polygon class="uuid-2afea694-78a7-4375-bf13-282a02b1d4fb" points="256.55 196.46 300.24 164.15 305.28 180.37 256.55 196.46"/>
    <polygon class="uuid-a8b0cbc5-84ba-4a2e-a333-0a15d6461a01" points="256.55 196.46 297.15 154.72 312.02 169.87 300.24 164.15 256.55 196.46"/>
    <polygon class="uuid-16b3e1f2-5743-4163-9d0f-3cb35fc73d17" points="303.19 173.63 312.02 169.87 300.24 164.15 303.19 173.63"/>
  </g>
  <g id="uuid-32c6f9a5-d695-44a7-b195-565cea4356bb" data-name="‘ëîé_5">
    <polygon class="uuid-ad029cb4-5a02-47c5-870c-74603bf2a046" points="357.13 233.96 392.83 216.06 395.86 222.88 358.6 237.26 357.13 233.96"/>
    <rect class="uuid-9c7bdef7-8eba-42e4-8663-8361b81deb10" x="392" y="207.86" width="38.01" height="8.42" transform="translate(872.71 238.91) rotate(156.03)"/>
    <path class="uuid-ad029cb4-5a02-47c5-870c-74603bf2a046" d="m434.67,217.84c3.6,3.37,7.77,5.98,12.38,7.75,4.62,1.78,9.46,2.63,14.39,2.54,5.1-.09,10.07-1.2,14.78-3.29,4.7-2.09,8.85-5.04,12.34-8.77,3.37-3.6,5.98-7.77,7.75-12.39,1.78-4.62,2.63-9.46,2.54-14.39-.09-5.1-1.2-10.07-3.29-14.78-2.09-4.7-5.04-8.85-8.77-12.34-3.6-3.37-7.77-5.98-12.38-7.75-4.62-1.78-9.46-2.63-14.39-2.54-5.1.09-10.08,1.2-14.78,3.29-4.7,2.09-8.85,5.04-12.34,8.76-3.37,3.6-5.98,7.77-7.75,12.39-1.78,4.62-2.63,9.46-2.54,14.39.09,5.1,1.2,10.07,3.29,14.78,2.09,4.7,5.04,8.85,8.77,12.34Zm-4.72-14.14c-7.54-16.97.13-36.92,17.1-44.46,16.97-7.54,36.92.13,44.47,17.1,7.54,16.97-.13,36.92-17.1,44.46-16.97,7.54-36.92-.13-44.46-17.1Z"/>
    <g class="uuid-fe2c4515-a7b0-4b06-93e1-f790fd464e2b">
      <path class="uuid-eaee6762-077e-4de6-ad5f-e3dddd286b47" d="m429.96,203.7c-7.54-16.97.13-36.92,17.1-44.46,16.97-7.54,36.92.13,44.47,17.1,7.54,16.97-.13,36.92-17.1,44.46-16.97,7.54-36.92-.13-44.46-17.1Z"/>
    </g>
    <path class="uuid-1ca705ff-ac33-4765-b117-9b8d88450fb5" d="m468.85,193.63c-1.8-2.04-1.6-5.16.44-6.96,2.04-1.8,5.16-1.6,6.96.44,1.8,2.04,1.6,5.16-.44,6.96-2.04,1.8-5.16,1.6-6.96-.44Z"/>
    <path class="uuid-1ca705ff-ac33-4765-b117-9b8d88450fb5" d="m458.29,190.01c-1.01-1.15-.9-2.9.25-3.91,1.15-1.01,2.9-.9,3.91.25,1.01,1.15.9,2.9-.25,3.91-1.15,1.01-2.9.9-3.91-.25Z"/>
  </g>
  <g id="uuid-df5794f7-88c6-4ac9-9f45-f7cd8f87b2e1" data-name="‘ëîé_12">
    <path class="uuid-2afea694-78a7-4375-bf13-282a02b1d4fb" d="m768.98,759.55c6.28,5.13,4.95,11.02,4.95,11.02l-14.25,17.43c-3.78,4.62-10.59,5.31-15.21,1.53-2.31-1.89-3.64-4.54-3.92-7.29-.28-2.75.5-5.61,2.39-7.92l14.37-17.58c1.06-.37,6.1-1.75,11.67,2.8Z"/>
    <path class="uuid-9c7bdef7-8eba-42e4-8663-8361b81deb10" d="m786.65,737.93c2.32,1.89,3.64,4.54,3.92,7.29.28,2.75-.5,5.61-2.39,7.92l-14.25,17.43s1.33-5.89-4.95-11.02c-5.57-4.55-10.61-3.17-11.67-2.8l14.13-17.29c3.78-4.62,10.59-5.31,15.21-1.53Z"/>
    <path class="uuid-9d14bc0f-859e-4076-963f-e3c6970a3f01" d="m757.31,756.74l-.12.15-.08-.07s.07-.03.2-.08Z"/>
    <path class="uuid-2afea694-78a7-4375-bf13-282a02b1d4fb" d="m715.46,763.77c6.65,1.26,8.03,6.11,8.03,6.11l-3.5,18.48c-.93,4.9-5.65,8.12-10.55,7.19-2.45-.46-4.48-1.88-5.78-3.78-1.3-1.91-1.87-4.31-1.41-6.77l3.53-18.63c.63-.69,3.77-3.72,9.68-2.6Z"/>
    <path class="uuid-1ca705ff-ac33-4765-b117-9b8d88450fb5" d="m719.8,740.86c2.45.46,4.48,1.87,5.78,3.78,1.3,1.91,1.87,4.31,1.41,6.77l-3.5,18.48s-1.38-4.85-8.03-6.11c-5.91-1.12-9.05,1.91-9.68,2.6l3.47-18.32c.93-4.9,5.65-8.12,10.55-7.19Z"/>
    <path class="uuid-9d14bc0f-859e-4076-963f-e3c6970a3f01" d="m705.78,766.37l-.03.16-.09-.02s.04-.05.12-.14Z"/>
    <path class="uuid-1ca705ff-ac33-4765-b117-9b8d88450fb5" d="m701.29,715.39c3.52,4.09,1.96,7.8,1.96,7.8l-11.37,9.77c-3.01,2.59-7.55,2.25-10.14-.77-1.3-1.51-1.86-3.4-1.72-5.23.14-1.83.98-3.62,2.49-4.91l11.46-9.85c.74-.12,4.2-.44,7.32,3.19Z"/>
    <path class="uuid-9c7bdef7-8eba-42e4-8663-8361b81deb10" d="m715.39,703.28c1.3,1.51,1.86,3.4,1.72,5.23-.14,1.83-.98,3.62-2.49,4.91l-11.37,9.77s1.56-3.71-1.96-7.8c-3.12-3.63-6.58-3.31-7.32-3.19l11.27-9.68c3.01-2.59,7.55-2.25,10.14.77Z"/>
    <path class="uuid-9d14bc0f-859e-4076-963f-e3c6970a3f01" d="m693.97,712.19l-.1.08-.05-.05s.05-.01.14-.03Z"/>
  </g>
  <g id="uuid-f4867d33-bbda-440c-90bd-d16198e54f4e" data-name="‘ëîé_10">
    <path class="uuid-a8b0cbc5-84ba-4a2e-a333-0a15d6461a01" d="m418.16,664.53l-188.52,37.57c-5.07,1.01-10-2.28-11.01-7.35l-14.13-70.92c-1.01-5.07,2.28-10,7.35-11.01l188.52-37.57c5.07-1.01,10,2.28,11.01,7.35l14.13,70.92c1.01,5.07-2.28,10-7.35,11.01Z"/>
    <path class="uuid-741b6534-b9a3-49a8-afd2-c2fbde8437da" d="m246.36,642.36c-4.37,6.55-13.02,8.51-19.73,4.67-.31-.17-.6-.36-.9-.55-.27-.18-.52-.36-.77-.55-6.2-4.73-7.73-13.51-3.34-20.09,4.38-6.56,13.08-8.52,19.83-4.61.28.16.54.32.81.5.29.19.58.4.85.62,6.13,4.73,7.62,13.47,3.26,20.01Z"/>
    <path class="uuid-035c973c-8871-4cdd-b3a5-2950289ff0b1" d="m243.1,622.35l-16.47,24.68c-.31-.17-.6-.36-.9-.55-.27-.18-.52-.36-.77-.55l16.49-24.69c.28.16.54.32.81.5.29.19.58.4.85.62Z"/>
    <path class="uuid-741b6534-b9a3-49a8-afd2-c2fbde8437da" d="m285.59,634.54c-4.37,6.55-13.02,8.51-19.73,4.67-.31-.17-.6-.36-.9-.55-.27-.18-.52-.36-.77-.55-6.2-4.73-7.73-13.51-3.34-20.09,4.38-6.56,13.08-8.52,19.83-4.61.28.16.54.32.81.5.29.19.58.4.85.62,6.13,4.73,7.62,13.47,3.26,20.01Z"/>
    <path class="uuid-035c973c-8871-4cdd-b3a5-2950289ff0b1" d="m282.33,614.54l-16.47,24.68c-.31-.17-.6-.36-.9-.55-.27-.18-.52-.36-.77-.55l16.49-24.69c.28.16.54.32.81.5.29.19.58.4.85.62Z"/>
    <path class="uuid-741b6534-b9a3-49a8-afd2-c2fbde8437da" d="m324.82,626.73c-4.37,6.55-13.02,8.51-19.73,4.67-.31-.17-.6-.36-.9-.55-.27-.18-.52-.36-.77-.55-6.2-4.73-7.73-13.51-3.34-20.09,4.38-6.56,13.08-8.52,19.83-4.61.28.16.54.32.81.5.29.19.58.4.85.62,6.13,4.73,7.62,13.47,3.26,20.01Z"/>
    <path class="uuid-035c973c-8871-4cdd-b3a5-2950289ff0b1" d="m321.56,606.72l-16.47,24.68c-.31-.17-.6-.36-.9-.55-.27-.18-.52-.36-.77-.55l16.49-24.69c.28.16.54.32.81.5.29.19.58.4.85.62Z"/>
    <path class="uuid-741b6534-b9a3-49a8-afd2-c2fbde8437da" d="m364.05,618.91c-4.37,6.55-13.02,8.51-19.73,4.67-.31-.17-.6-.36-.9-.55-.27-.18-.52-.36-.77-.55-6.2-4.73-7.73-13.51-3.34-20.09,4.38-6.56,13.08-8.52,19.83-4.61.28.16.54.32.81.5.29.19.58.4.85.62,6.13,4.73,7.62,13.47,3.26,20.01Z"/>
    <path class="uuid-035c973c-8871-4cdd-b3a5-2950289ff0b1" d="m360.79,598.9l-16.47,24.68c-.31-.17-.6-.36-.9-.55-.27-.18-.52-.36-.77-.55l16.49-24.69c.28.16.54.32.81.5.29.19.58.4.85.62Z"/>
    <path class="uuid-741b6534-b9a3-49a8-afd2-c2fbde8437da" d="m403.28,611.09c-4.37,6.55-13.02,8.51-19.73,4.67-.31-.17-.6-.36-.9-.55-.27-.18-.52-.36-.77-.55-6.2-4.73-7.73-13.51-3.34-20.09,4.38-6.56,13.08-8.52,19.83-4.61.28.16.54.32.81.5.29.19.58.4.85.62,6.13,4.73,7.62,13.47,3.26,20.01Z"/>
    <path class="uuid-035c973c-8871-4cdd-b3a5-2950289ff0b1" d="m400.02,591.08l-16.47,24.68c-.31-.17-.6-.36-.9-.55-.27-.18-.52-.36-.77-.55l16.49-24.69c.28.16.54.32.81.5.29.19.58.4.85.62Z"/>
    <path class="uuid-741b6534-b9a3-49a8-afd2-c2fbde8437da" d="m254.18,681.59c-4.37,6.55-13.02,8.51-19.73,4.67-.31-.17-.6-.36-.9-.55-.27-.18-.52-.36-.77-.55-6.2-4.73-7.73-13.51-3.34-20.09,4.38-6.56,13.08-8.52,19.83-4.61.28.16.54.32.81.5.29.19.58.4.85.62,6.13,4.73,7.62,13.47,3.26,20.01Z"/>
    <path class="uuid-035c973c-8871-4cdd-b3a5-2950289ff0b1" d="m250.92,661.58l-16.47,24.68c-.31-.17-.6-.36-.9-.55-.27-.18-.52-.36-.77-.55l16.49-24.69c.28.16.54.32.81.5.29.19.58.4.85.62Z"/>
    <path class="uuid-741b6534-b9a3-49a8-afd2-c2fbde8437da" d="m293.41,673.77c-4.37,6.55-13.02,8.51-19.73,4.67-.31-.17-.6-.36-.9-.55-.27-.18-.52-.36-.77-.55-6.2-4.73-7.73-13.51-3.34-20.09,4.38-6.56,13.08-8.52,19.83-4.61.28.16.54.32.81.5.29.19.58.4.85.62,6.13,4.73,7.62,13.47,3.26,20.01Z"/>
    <path class="uuid-035c973c-8871-4cdd-b3a5-2950289ff0b1" d="m290.15,653.76l-16.47,24.68c-.31-.17-.6-.36-.9-.55-.27-.18-.52-.36-.77-.55l16.49-24.69c.28.16.54.32.81.5.29.19.58.4.85.62Z"/>
    <path class="uuid-741b6534-b9a3-49a8-afd2-c2fbde8437da" d="m332.64,665.95c-4.37,6.55-13.02,8.51-19.73,4.67-.31-.17-.6-.36-.9-.55-.27-.18-.52-.36-.77-.55-6.2-4.73-7.73-13.51-3.34-20.09,4.38-6.56,13.08-8.52,19.83-4.61.28.16.54.32.81.5.29.19.58.4.85.62,6.13,4.73,7.62,13.47,3.26,20.01Z"/>
    <path class="uuid-035c973c-8871-4cdd-b3a5-2950289ff0b1" d="m329.38,645.95l-16.47,24.68c-.31-.17-.6-.36-.9-.55-.27-.18-.52-.36-.77-.55l16.49-24.69c.28.16.54.32.81.5.29.19.58.4.85.62Z"/>
    <path class="uuid-741b6534-b9a3-49a8-afd2-c2fbde8437da" d="m371.87,658.14c-4.37,6.55-13.02,8.51-19.73,4.67-.31-.17-.6-.36-.9-.55-.27-.18-.52-.36-.77-.55-6.2-4.73-7.73-13.51-3.34-20.09,4.38-6.56,13.08-8.52,19.83-4.61.28.16.54.32.81.5.29.19.58.4.85.62,6.13,4.73,7.62,13.47,3.26,20.01Z"/>
    <path class="uuid-035c973c-8871-4cdd-b3a5-2950289ff0b1" d="m368.61,638.13l-16.47,24.68c-.31-.17-.6-.36-.9-.55-.27-.18-.52-.36-.77-.55l16.49-24.69c.28.16.54.32.81.5.29.19.58.4.85.62Z"/>
    <path class="uuid-741b6534-b9a3-49a8-afd2-c2fbde8437da" d="m411.1,650.32c-4.37,6.55-13.02,8.51-19.73,4.67-.31-.17-.6-.36-.9-.55-.27-.18-.52-.36-.77-.55-6.2-4.73-7.73-13.51-3.34-20.09,4.38-6.56,13.08-8.52,19.83-4.61.28.16.54.32.81.5.29.19.58.4.85.62,6.13,4.73,7.62,13.47,3.26,20.01Z"/>
    <path class="uuid-035c973c-8871-4cdd-b3a5-2950289ff0b1" d="m407.84,630.31l-16.47,24.68c-.31-.17-.6-.36-.9-.55-.27-.18-.52-.36-.77-.55l16.49-24.69c.28.16.54.32.81.5.29.19.58.4.85.62Z"/>
  </g>
  <g id="uuid-3d5e532c-3586-4416-8b78-30c79b849f01" data-name="‘ëîé_13">
    <path class="uuid-9c7bdef7-8eba-42e4-8663-8361b81deb10" d="m281.24,799.5s-8.69-11.8-16.31-7.63c-7.61,4.17-8.94,12.21-1.94,22.47,5.36,7.86,33.51,14.97,33.51,14.97,0,0,12.24-31.07,7.03-39.41-5.21-8.34-11.72-12.48-17.63-9.25-5.91,3.23-6.3,11.86-4.67,18.84Z"/>
    <path class="uuid-5a9f74d0-5a62-4d8d-a7f6-02d08e00e6c3" d="m282.97,748.06s-6.85-9.3-12.85-6.01c-6,3.29-7.04,9.62-1.53,17.71,4.22,6.19,26.41,11.8,26.41,11.8,0,0,9.65-24.49,5.54-31.06-4.11-6.57-9.24-9.84-13.89-7.29-4.66,2.55-4.97,9.35-3.68,14.85Z"/>
    <path class="uuid-8601ab72-de28-421f-a8fd-b5a53bf9103b" d="m240.44,749.43s-5.09-6.91-9.55-4.47c-4.46,2.44-5.24,7.15-1.14,13.16,3.14,4.6,19.63,8.77,19.63,8.77,0,0,7.17-18.2,4.12-23.09-3.05-4.89-6.87-7.31-10.33-5.42-3.46,1.89-3.69,6.95-2.73,11.04Z"/>
  </g>
  <g id="uuid-09122e3b-0f08-4070-a016-a3af6fb91c6e" data-name="‘ëîé_9">
    <path class="uuid-1ca705ff-ac33-4765-b117-9b8d88450fb5" d="m653.72,434.54l-32.19-40.65c1.79-1.41,3.98-1.97,6.07-1.72,2.1.25,4.1,1.29,5.51,3.08l83.61-66.21,21.58,27.25-12.99,10.28-1.38,1.1-7.85,6.22-1.39,1.09-7.85,6.22-1.39,1.1-7.85,6.22-1.39,1.1-7.85,6.22-1.38,1.1-7.85,6.21-1.39,1.1-7.85,6.22-1.39,1.09-13.8,10.93.36.46c2.83,3.57,2.23,8.76-1.34,11.59Z"/>
    <rect class="uuid-16b3e1f2-5743-4163-9d0f-3cb35fc73d17" x="630.98" y="412.99" width="7.66" height="7.66" transform="translate(567.49 -339.61) rotate(51.63)"/>
    <path class="uuid-2afea694-78a7-4375-bf13-282a02b1d4fb" d="m635.87,434.77l-18.29-23.1c-1.11-1.4-.87-3.44.53-4.55h0c1.4-1.11,3.44-.87,4.55.53l18.29,23.1c1.11,1.4.87,3.44-.53,4.55h0c-1.4,1.11-3.44.87-4.55-.53Z"/>
    <rect class="uuid-16b3e1f2-5743-4163-9d0f-3cb35fc73d17" x="724.64" y="332.15" width="15.91" height="12.96" transform="translate(543.28 -445.92) rotate(51.63)"/>
    <rect class="uuid-2afea694-78a7-4375-bf13-282a02b1d4fb" x="758.86" y="289" width="2.36" height="56.56" transform="translate(536.95 -475.53) rotate(51.63)"/>
    <rect class="uuid-9c7bdef7-8eba-42e4-8663-8361b81deb10" x="720.26" y="357.13" width="1.77" height="11.19" transform="translate(-69.39 526.07) rotate(-38.38)"/>
    <rect class="uuid-9c7bdef7-8eba-42e4-8663-8361b81deb10" x="711.03" y="364.45" width="1.77" height="11.19" transform="translate(-75.92 521.92) rotate(-38.38)"/>
    <rect class="uuid-9c7bdef7-8eba-42e4-8663-8361b81deb10" x="701.79" y="371.76" width="1.77" height="11.2" transform="translate(-82.46 517.76) rotate(-38.38)"/>
    <rect class="uuid-9c7bdef7-8eba-42e4-8663-8361b81deb10" x="692.55" y="379.08" width="1.77" height="11.2" transform="translate(-89 513.61) rotate(-38.38)"/>
    <rect class="uuid-9c7bdef7-8eba-42e4-8663-8361b81deb10" x="683.31" y="386.39" width="1.77" height="11.2" transform="translate(-95.54 509.45) rotate(-38.38)"/>
    <rect class="uuid-9c7bdef7-8eba-42e4-8663-8361b81deb10" x="674.07" y="393.71" width="1.77" height="11.19" transform="translate(-102.07 505.3) rotate(-38.38)"/>
    <rect class="uuid-9c7bdef7-8eba-42e4-8663-8361b81deb10" x="664.83" y="401.03" width="1.77" height="11.19" transform="translate(-108.61 501.15) rotate(-38.38)"/>
  </g>
  <g id="uuid-abb0288a-1bd5-44f9-bbb9-3ac53b8383aa" data-name="‘ëîé_8">
    <path class="uuid-1afbfef6-fc00-41f5-a6f8-95e0e479fd57" d="m213.28,476.17l12.73,7.34-5.96,10.33-12.73-7.34c-2.86-1.65-3.83-5.28-2.19-8.14.82-1.42,2.14-2.39,3.62-2.78,1.47-.41,3.1-.23,4.52.59Z"/>
    <path class="uuid-1ca705ff-ac33-4765-b117-9b8d88450fb5" d="m226.01,483.51l96.84,55.85c2.86,1.65,3.83,5.28,2.19,8.14s-5.28,3.83-8.14,2.19l-96.84-55.85,5.96-10.33Z"/>
    <path class="uuid-1afbfef6-fc00-41f5-a6f8-95e0e479fd57" d="m379.98,555.48l6.4,3.69c9.5,5.48,12.77,17.64,7.29,27.14-5.48,9.5-17.64,12.77-27.14,7.29l-6.4-3.69,19.85-34.43Z"/>
    <path class="uuid-1ca705ff-ac33-4765-b117-9b8d88450fb5" d="m275.1,495l104.87,60.48-19.85,34.43-104.87-60.48c-9.5-5.48-12.77-17.64-7.29-27.14,2.74-4.75,7.15-7.94,12.05-9.26,4.92-1.32,10.34-.77,15.09,1.97Z"/>
    <rect class="uuid-917733c3-192e-4c8e-98af-a5131ed21db6" x="288.02" y="514.02" width="7.95" height="1.32" transform="translate(-299.73 510.52) rotate(-60.03)"/>
    <rect class="uuid-917733c3-192e-4c8e-98af-a5131ed21db6" x="276.55" y="507.4" width="7.95" height="1.32" transform="translate(-299.74 497.26) rotate(-60.03)"/>
    <rect class="uuid-917733c3-192e-4c8e-98af-a5131ed21db6" x="299.5" y="520.64" width="7.95" height="1.32" transform="translate(-299.72 523.77) rotate(-60.03)"/>
    <rect class="uuid-917733c3-192e-4c8e-98af-a5131ed21db6" x="310.97" y="527.26" width="7.95" height="1.32" transform="translate(-299.71 537.03) rotate(-60.03)"/>
    <rect class="uuid-917733c3-192e-4c8e-98af-a5131ed21db6" x="322.45" y="533.87" width="7.95" height="1.32" transform="translate(-299.7 550.28) rotate(-60.03)"/>
    <rect class="uuid-917733c3-192e-4c8e-98af-a5131ed21db6" x="333.92" y="540.49" width="7.95" height="1.32" transform="translate(-299.69 563.53) rotate(-60.03)"/>
    <rect class="uuid-917733c3-192e-4c8e-98af-a5131ed21db6" x="345.4" y="547.11" width="7.95" height="1.32" transform="translate(-299.68 576.78) rotate(-60.03)"/>
    <rect class="uuid-917733c3-192e-4c8e-98af-a5131ed21db6" x="356.88" y="553.73" width="7.95" height="1.32" transform="translate(-299.67 590.04) rotate(-60.03)"/>
    <path class="uuid-9c7bdef7-8eba-42e4-8663-8361b81deb10" d="m352.6,563.39h0c-.91,1.58-2.94,2.13-4.52,1.21l-120.49-69.48c-1.58-.91-2.13-2.94-1.21-4.52h0c.91-1.58,2.94-2.13,4.52-1.21l120.49,69.48c1.58.91,2.13,2.94,1.21,4.52Z"/>
  </g>
  <g id="uuid-5469ed50-b21a-4636-8eb6-ec2ab5e0e1a3" data-name="‘ëîé_6">
    <circle class="uuid-9c7bdef7-8eba-42e4-8663-8361b81deb10" cx="681.8" cy="243.75" r="47.74" transform="translate(174.55 760.44) rotate(-65.2)"/>
    <rect class="uuid-1ca705ff-ac33-4765-b117-9b8d88450fb5" x="654.25" y="235.37" width="53.64" height="17.17" transform="translate(211.43 -306.33) rotate(29.81)"/>
    <rect class="uuid-1ca705ff-ac33-4765-b117-9b8d88450fb5" x="654.25" y="235.37" width="53.64" height="17.17" transform="translate(1231.35 -225.69) rotate(119.81)"/>
  </g>
  <g id="uuid-9978f0dd-23f0-456a-bf04-f9b262d740c2" data-name="‘ëîé_1">
    <rect class="uuid-62ffa4d7-c5d2-4af0-b2bb-67e9655cfbd9" x="333.1" y="228.44" width="333.8" height="580" rx="60.86" ry="60.86"/>
    <rect class="uuid-741b6534-b9a3-49a8-afd2-c2fbde8437da" x="344.6" y="302.84" width="310.8" height="428"/>
    <rect class="uuid-741b6534-b9a3-49a8-afd2-c2fbde8437da" x="439.9" y="254.04" width="120.2" height="12.8"/>
    <circle class="uuid-7de17fde-bf62-4454-9be1-3753d48c9d51" cx="500" cy="769.24" r="24.6"/>
  </g>
  <g id="uuid-5e3e4b51-9ef7-436b-9a3e-f5cf63d622d4" data-name="‘ëîé_11">
    <rect class="uuid-2afea694-78a7-4375-bf13-282a02b1d4fb" x="363" y="464" width="219" height="59" rx="12.39" ry="12.39"/>
    <rect class="uuid-2afea694-78a7-4375-bf13-282a02b1d4fb" x="345" y="303" width="310" height="145"/>
    <path class="uuid-5ce9fcb2-1de3-44c4-bc69-ddaa979bc051" d="m608.27,378.18c-1.42.09-2.75.13-3.92.14-2.43.04-4.24-.05-5.07-.11h-.17c-.21-.02-.32-.03-.32-.03,0,0-2.24,3.79-6.71,3.79-3.12,0-5.74-1.5-7.04-2.42l6.88,68.07h40.29c-1.04-69.37-18.43-69.79-23.94-69.44Z"/>
    <rect class="uuid-a8b0cbc5-84ba-4a2e-a333-0a15d6461a01" x="365" y="336.2" width="107" height="73"/>
    <path class="uuid-e47c8f3f-fa86-490d-97ef-e767e05d2c61" d="m466.64,376.91c.5,1.25,3.11,3.84,6.17,6.04,2.01,1.45,3.66,2.58,3.66,2.58l4.33-6.15s-2.98-3.5-5.45-5.66c-.54-.47-1.35-.24-1.43.42l-.07.57c.14.38.16.66-.09.69-1.03.12-2.05-1.9-4.54-2.37s-3.08,2.64-2.58,3.89Z"/>
    <path class="uuid-a8b0cbc5-84ba-4a2e-a333-0a15d6461a01" d="m599,378.2l-3.86,38.57,3.86,30.85h-17l3.04-68.07c.09.07.19.13.3.2,1.38.93,3.84,2.22,6.74,2.22,2.7,0,4.58-1.38,5.65-2.47.71-.72,1.06-1.32,1.06-1.32,0,0,.11.01.32.02h-.11Z"/>
    <path class="uuid-1e59c552-0356-467e-8b2f-6ce54dfb66eb" d="m632.21,447.62h-38.11l.9-30.42,4-39c1.17-.01,7.85.07,9.27-.02,5.51-.35,22.9.07,23.94,69.44Z"/>
    <path class="uuid-1e59c552-0356-467e-8b2f-6ce54dfb66eb" d="m589.92,447.62h-28.85s-1.72-36.37,0-48.09c-12.05,6.21-31,21.71-38.92,21.53-7.93-.17-47.72-35.65-47.72-35.65l5.69-7.23s37.03,31.52,42.03,29.45c4.99-2.07,43.92-28.76,49.6-29.45,1.34-.16,4.51.02,7.32.24,1.14.08,2.22.18,3.09.26l2.26.42c.15.11.36.27.62.45l3.96,36.65.92,31.42Z"/>
    <path class="uuid-0f846531-1306-4a40-8358-d1c93df349d1" d="m619.89,447.75l-1.54-.27c2.36-13.28-3.38-43.02-3.44-43.32l1.53-.3c.24,1.23,5.86,30.32,3.45,43.89Z"/>
    <path class="uuid-1ca705ff-ac33-4765-b117-9b8d88450fb5" d="m589,416.2l-4-11-5.93-26.78c1.14.08,2.22.18,3.09.26l2.26.42c.15.11.36.27.62.45l3.96,36.65Z"/>
    <path class="uuid-1ca705ff-ac33-4765-b117-9b8d88450fb5" d="m604.35,378.32l-4.35,23.88-4.86,14.57,3.86-38.57h.28c.83.07,2.64.16,5.07.12Z"/>
    <path class="uuid-9c7bdef7-8eba-42e4-8663-8361b81deb10" d="m582.8,413.78l-.39-1.18c.13-.05,3.3-1.16,3.3-4.38,0-4.46-2.11-14.91-6.21-14.91-4.36,0-6.21,10.67-6.21,14.91,0,3.27,2.06,4.37,2.14,4.42l-.56,1.11c-.12-.06-2.83-1.46-2.83-5.53s1.83-16.15,7.45-16.15,7.45,12.59,7.45,16.15c0,3.3-2.72,5.08-4.15,5.56Z"/>
    <path class="uuid-9c7bdef7-8eba-42e4-8663-8361b81deb10" d="m605.5,393.25l-.99-.11c0-.09.88-8.51-3.67-13.58-2.3-2.56-5.61-3.86-9.84-3.86s-7.52,1.27-9.51,3.79c-3.79,4.78-2.02,12.52-2,12.6l-.97.23c-.08-.34-1.89-8.29,2.19-13.45,2.19-2.77,5.65-4.17,10.29-4.17s8.09,1.41,10.58,4.2c4.84,5.41,3.95,13.99,3.91,14.36Z"/>
    <circle class="uuid-a8b0cbc5-84ba-4a2e-a333-0a15d6461a01" cx="605" cy="394.7" r="2.5"/>
    <path class="uuid-a8b0cbc5-84ba-4a2e-a333-0a15d6461a01" d="m575.86,413.38c-.2.51-.58.85-.84.74-.26-.1-.3-.6-.09-1.11.2-.51.58-.85.84-.74.26.1.3.6.09,1.11Z"/>
    <path class="uuid-a8b0cbc5-84ba-4a2e-a333-0a15d6461a01" d="m582.04,413.38c.2.51.58.85.84.74.26-.1.3-.6.09-1.11-.2-.51-.58-.85-.84-.74-.26.1-.3.6-.09,1.11Z"/>
    <circle class="uuid-1ca705ff-ac33-4765-b117-9b8d88450fb5" cx="605" cy="394.7" r="1.5"/>
    <path class="uuid-5e240b75-acb1-45b9-9306-147d5e629b10" d="m597.73,379.5c-1.07,1.09-2.95,2.47-5.65,2.47-2.9,0-5.36-1.29-6.74-2.22l-.6-10.09,9.21-7.16,3.78,17Z"/>
    <path class="uuid-e47c8f3f-fa86-490d-97ef-e767e05d2c61" d="m577,343.2s-4,30,15,30,13-30,13-30h-28Z"/>
    <path class="uuid-319f2f5f-29fd-4840-9236-e3a7f80fe9cf" d="m591,345.2c7,0,14.63-1.89,14.82,5.05.18,6.95,5.18-5.05,1.18-11.05s-8-6-14-6-13-1-16,5-1.67,14.68,1.16,9.84c2.84-4.84,4.84-2.84,12.84-2.84Z"/>
    <polygon class="uuid-1ca705ff-ac33-4765-b117-9b8d88450fb5" points="398.45 397.68 388.29 364.42 385.43 373.47 371.69 373.47 371.69 372.47 384.7 372.47 388.31 361.06 398.42 394.17 404.75 372.2 411.45 372.2 415.14 361.17 418.49 371.1 421.69 361.17 425.54 372.2 432.21 372.2 438.53 387.86 443.78 372.81 451.97 347.76 459 372.47 465.31 372.47 465.31 373.47 458.25 373.47 451.9 351.18 444.73 373.13 438.6 390.71 431.54 373.2 424.83 373.2 421.73 364.31 418.51 374.29 415.14 364.31 412.17 373.2 405.5 373.2 398.45 397.68"/>
    <path class="uuid-1ca705ff-ac33-4765-b117-9b8d88450fb5" d="m564,482h-183c-2.21,0-4-1.79-4-4h0c0-2.21,1.79-4,4-4h183c2.21,0,4,1.79,4,4h0c0,2.21-1.79,4-4,4Z"/>
    <path class="uuid-1ca705ff-ac33-4765-b117-9b8d88450fb5" d="m514,498h-133c-2.21,0-4-1.79-4-4h0c0-2.21,1.79-4,4-4h133c2.21,0,4,1.79,4,4h0c0,2.21-1.79,4-4,4Z"/>
    <path class="uuid-1ca705ff-ac33-4765-b117-9b8d88450fb5" d="m514,514h-133c-2.21,0-4-1.79-4-4h0c0-2.21,1.79-4,4-4h133c2.21,0,4,1.79,4,4h0c0,2.21-1.79,4-4,4Z"/>
    <rect class="uuid-2afea694-78a7-4375-bf13-282a02b1d4fb" x="414" y="539" width="219" height="59" rx="12.39" ry="12.39"/>
    <path class="uuid-1ca705ff-ac33-4765-b117-9b8d88450fb5" d="m615,557h-183c-2.21,0-4-1.79-4-4h0c0-2.21,1.79-4,4-4h183c2.21,0,4,1.79,4,4h0c0,2.21-1.79,4-4,4Z"/>
    <path class="uuid-1ca705ff-ac33-4765-b117-9b8d88450fb5" d="m565,573h-133c-2.21,0-4-1.79-4-4h0c0-2.21,1.79-4,4-4h133c2.21,0,4,1.79,4,4h0c0,2.21-1.79,4-4,4Z"/>
    <path class="uuid-1ca705ff-ac33-4765-b117-9b8d88450fb5" d="m565,589h-133c-2.21,0-4-1.79-4-4h0c0-2.21,1.79-4,4-4h133c2.21,0,4,1.79,4,4h0c0,2.21-1.79,4-4,4Z"/>
    <rect class="uuid-1ca705ff-ac33-4765-b117-9b8d88450fb5" x="360" y="616" width="275" height="71" rx="16.41" ry="16.41"/>
    <path class="uuid-2afea694-78a7-4375-bf13-282a02b1d4fb" d="m625,719h-55c-5.52,0-10-4.48-10-10h0c0-5.52,4.48-10,10-10h55c5.52,0,10,4.48,10,10h0c0,5.52-4.48,10-10,10Z"/>
  </g>
  <g id="uuid-de35789f-9a9c-4863-bb0f-de079d3ef45a" data-name="‘ëîé_14">
    <path class="uuid-ad88c0fd-eae1-4403-bf32-796ede4c141d" d="m612.95,709.5l8.81-2.29,1.48,6.75s-6.3,3.8-9.37,3.32c-3.08-.48-.92-7.78-.92-7.78"/>
    <path class="uuid-a6d427be-d24b-437a-8579-24dba9af710b" d="m609.25,839.99c-.63,5.64,5.1,13.99,6.44,25.55,1.34,11.56,2.13,27.43,2.13,27.43l-7.26,1.34s-22.02-50.57-20.67-62.67c1.35-12.1,5.68-47.06,5.68-47.06l23.8-1.06s-.37,17.33-3.38,34.15c-1.43,8.02-6.48,19.97-6.74,22.32Z"/>
    <path class="uuid-9c7bdef7-8eba-42e4-8663-8361b81deb10" d="m607.13,783.51l19.29,112.96h7.53s4.33-41.41,1.11-56.47c-.26-15.33,6.75-39.53,1.11-56.47l-29.04-.02Z"/>
    <polygon class="uuid-e47c8f3f-fa86-490d-97ef-e767e05d2c61" points="627.57 896.48 628.03 901.05 632.88 900.51 632.54 896.48 627.57 896.48"/>
    <polygon class="uuid-e47c8f3f-fa86-490d-97ef-e767e05d2c61" points="611.16 894.32 612.17 898.08 616.74 896.2 615.89 893.33 611.16 894.32"/>
    <path class="uuid-a8b0cbc5-84ba-4a2e-a333-0a15d6461a01" d="m636.17,783.53s2.7-32.06.28-38.24l5.66-1.29s-6.8-22.27-14.32-28.46c-7.53-6.19-34.87-1.42-40.27,23.85,3.23,2.15,8.6,2.16,8.6,2.16,0,0-1.9,34.69-.56,41.95,1.34,7.26,40.61.03,40.61.03Z"/>
    <path class="uuid-ad88c0fd-eae1-4403-bf32-796ede4c141d" d="m591.43,740.97s-4.03,15.55-2.15,21.73c-2.69-4.3-.71-22.72-.71-22.72l2.86.98Z"/>
    <path class="uuid-110c8607-0459-4772-aa3e-2bef330ad464" d="m597.7,907.47s18.9-5.28,20.71-7.06c.35-.35.5-.74.53-1.15,0,0-2.56,1.8-21.68,7.3.16.58.45.9.45.9Z"/>
    <path class="uuid-2afea694-78a7-4375-bf13-282a02b1d4fb" d="m618.94,899.26s-2.56,1.8-21.68,7.3c0,0,0,0,0,0-.39-1.46.11-4.49,8.29-7.82.45-.18.93-.37,1.43-.56,1.33-.5,2.84-1,4.54-1.5l5.31-1.13s2.21,2,2.11,3.71Z"/>
    <path class="uuid-110c8607-0459-4772-aa3e-2bef330ad464" d="m607.59,900.06l-1.46.48-.59-1.8c.45-.18.93-.37,1.43-.56l.61,1.88Z"/>
    <rect class="uuid-110c8607-0459-4772-aa3e-2bef330ad464" x="608.13" y="897.75" width="1.98" height="1.53" transform="translate(1274.16 40.56) rotate(71.92)"/>
    <path class="uuid-110c8607-0459-4772-aa3e-2bef330ad464" d="m612.44,905.12s19.62.42,21.87-.77c.43-.23.7-.56.84-.95,0,0-2.97.98-22.87.72-.02.6.17.99.17.99Z"/>
    <path class="uuid-2afea694-78a7-4375-bf13-282a02b1d4fb" d="m635.14,903.41s-2.97.98-22.87.72c0,0,0,0,0-.01.05-1.51,1.4-4.26,10.2-5.09.49-.05,1-.08,1.53-.12,1.42-.09,3-.13,4.78-.12l5.41.45s1.54,2.56.95,4.17Z"/>
    <path class="uuid-110c8607-0459-4772-aa3e-2bef330ad464" d="m624.05,900.89l-1.53.03-.04-1.89c.49-.05,1-.08,1.53-.12l.04,1.97Z"/>
    <rect class="uuid-110c8607-0459-4772-aa3e-2bef330ad464" x="624.97" y="899.09" width="1.98" height="1.53" transform="translate(1511.8 254.2) rotate(88.74)"/>
    <path class="uuid-e47c8f3f-fa86-490d-97ef-e767e05d2c61" d="m628.59,747.08l13.52-3.06s3.65,23.78-3.22,27.06c-6.87,3.27-15.07.65-21-.32-5.94-.96-17.64-2.55-20.72-1.93-3.07.62-9.31,2.12-11.78-2.18s.18-9.35,4.37-5.87c4.19,3.48,7.08,3.37,15.27,1.99,8.19-1.37,24.05-3.45,24.05-3.45,0,0-1.82-6.3-.48-12.24Z"/>
    <path class="uuid-c1c4aff3-be10-4760-9bec-0fe7832ad356" d="m606.14,694s-1.75-7.2,5.93-6.99c7.68.21,14.06,4.76,13.87,9.67-.19,4.9-3.41,6.35-5.14,6.72-1.73.37-14.65-9.39-14.65-9.39Z"/>
    <path class="uuid-e47c8f3f-fa86-490d-97ef-e767e05d2c61" d="m621.96,707.79l-1.9-7.03s3.48-.59,2.8-2.76c-1.11-3.51-4.02,0-4.02,0,0,0-.26-5.62-1.73-5.96-1.47-.34-10.66.65-10.93,1.83-.27,1.18-3.16,13.81.12,17.03,3.28,3.22,6.5,1.03,6.5,1.03,0,0,7.57-3.76,9.17-4.15Z"/>
    <path class="uuid-5e240b75-acb1-45b9-9306-147d5e629b10" d="m588.51,762.22s2.84,4.88,5.94,1.64c3.1-3.24,6.12-11.88,6.53-19.47.41-7.6-.25-29.13.28-32.96s2.19-9.64,1.04-10.35c-1.14-.71-7.5.66-7.57,6.06-.07,5.41,1.25,5.02-.86,11.68-2.11,6.66-10.75,28.21-5.37,43.4Z"/>
    <rect class="uuid-c1c4aff3-be10-4760-9bec-0fe7832ad356" x="587.07" y="695.51" width="1.45" height="11.04" transform="translate(-287.91 965.74) rotate(-66.84)"/>
    <rect class="uuid-c1c4aff3-be10-4760-9bec-0fe7832ad356" x="581.28" y="705.37" width="11.59" height="1.45"/>
    <rect class="uuid-c1c4aff3-be10-4760-9bec-0fe7832ad356" x="582.28" y="710.44" width="11.04" height="1.45" transform="translate(-232.62 289.05) rotate(-23.2)"/>
  </g>
  <g id="uuid-d20b56b0-b145-4e14-9dda-be414d64c7b4" data-name="‘ëîé_15">
    <polygon class="uuid-5e240b75-acb1-45b9-9306-147d5e629b10" points="372.68 859.39 369.54 860.74 367.99 856.03 371.74 854.85 372.68 859.39"/>
    <path class="uuid-b8875b0a-06e4-4038-b16f-f51f51b3205a" d="m368.22,875.84s-5.04-17.48-4.51-19.77c.1-.44.34-.76.65-.97,0,0-.17,2.9,4.79,20.66-.53.16-.93.09-.93.09Z"/>
    <path class="uuid-2afea694-78a7-4375-bf13-282a02b1d4fb" d="m369.15,875.75c-4.96-17.76-4.79-20.66-4.79-20.66,1.3-.91,3.96-.14,3.96-.14l1.69,4.74c3.54,12.97.76,15.57-.85,16.05,0,0,0,0,0,0Z"/>
    <polygon class="uuid-b8875b0a-06e4-4038-b16f-f51f51b3205a" points="371.29 865.4 369.59 865.81 369.25 864.43 371.03 864 371.29 865.4"/>
    <rect class="uuid-b8875b0a-06e4-4038-b16f-f51f51b3205a" x="368.81" y="861.76" width="1.84" height="1.42" transform="translate(931.71 1613.95) rotate(166.41)"/>
    <polygon class="uuid-5e240b75-acb1-45b9-9306-147d5e629b10" points="435.6 885.7 435.31 889.32 430.13 888.46 430.87 884.35 435.6 885.7"/>
    <path class="uuid-b8875b0a-06e4-4038-b16f-f51f51b3205a" d="m448.84,898s-18.88-3.88-20.78-5.5c-.37-.31-.54-.69-.59-1.09,0,0,2.63,1.59,21.75,5.68-.11.58-.38.92-.38.92Z"/>
    <path class="uuid-2afea694-78a7-4375-bf13-282a02b1d4fb" d="m449.22,897.08c-19.11-4.09-21.75-5.68-21.75-5.68-.21-1.67,1.82-3.78,1.82-3.78l5.28.75c13.92,3.06,14.99,6.95,14.65,8.7,0,0,0,0,0,0Z"/>
    <polygon class="uuid-b8875b0a-06e4-4038-b16f-f51f51b3205a" points="440.56 889.97 440.1 891.78 438.64 891.41 439.12 889.53 440.56 889.97"/>
    <rect class="uuid-b8875b0a-06e4-4038-b16f-f51f51b3205a" x="436.06" y="889.25" width="1.95" height="1.5" transform="translate(1406.68 682.9) rotate(104.1)"/>
    <path class="uuid-5e240b75-acb1-45b9-9306-147d5e629b10" d="m454.34,671.82c.2.69.45,2.22.74,4.2l4.36-2.18c-.72-2.19-.25-2.83-.7-5.87-.6-4-5.46-4.37-6.23-3.72-.78.64,1.04,4.78,1.83,7.57Z"/>
    <path class="uuid-5e240b75-acb1-45b9-9306-147d5e629b10" d="m376,804c1.01,0,2.23-4.37,3.38-7.02.25-.57.86-1.65,1.69-3.05l-3.82-3.39c-1.07,3.81-1.82,3.45-3.71,6.63-2.07,3.48,1.46,6.84,2.46,6.83Z"/>
    <path class="uuid-b2fcc36c-ca2a-47b8-9198-758e57888572" d="m459.82,673.66l-.38.18c.23.7.59,1.56,1.13,2.71.28.59.67,1.35,1.11,2.25-1.09-3.06-1.87-5.14-1.87-5.14Z"/>
    <path class="uuid-b2fcc36c-ca2a-47b8-9198-758e57888572" d="m454.55,676.29s.71,3.14,1.53,7.16c-.36-2.69-.7-5.32-1-7.43l-.53.27Z"/>
    <path class="uuid-e47c8f3f-fa86-490d-97ef-e767e05d2c61" d="m422.37,723.63s-3.06-6.83-.42-7.48c2.63-.66,3.29-2.63.66-7.24-2.63-4.61-4.61-9.22-11.2-6.59-6.59,2.63-7.24,9.22-4.61,11.86,2.63,2.63,7.61,7.51,8.74,12.32"/>
    <path class="uuid-0bd6d094-ca06-41f1-a1ce-8cb6d802c31e" d="m413.06,794.19s-3.29.66-8.56-3.29c-8.56,11.2,3.69,32.54-5.27,41.49-9.88,9.88-27.66,21.73-27.66,21.73l.66,5.93s36.22-10.54,40.84-23.05,13.17-31.61,13.17-31.61c0,0,2.4-12.18-13.17-11.2Z"/>
    <path class="uuid-a8b0cbc5-84ba-4a2e-a333-0a15d6461a01" d="m439.73,785.96s7.24,31.61,3.95,54.67c-3.29,23.05-7.25,45.45-7.25,45.45l-5.9-1.72s-3.32-36.49-.03-46.36c3.29-9.88-13.38-36.39-12.72-43.64,0,0,6.79.17,21.94-8.4Z"/>
    <path class="uuid-9c7bdef7-8eba-42e4-8663-8361b81deb10" d="m376.17,789.58l1.07.95,3.82,3.39,1.03.92s2.46-5.16,5.78-11.99c2.08-4.27,4.5-9.19,6.86-13.9,4.74-9.44,9.26-18.04,10.41-18.9,2.63-1.98-.66,40.84-.66,40.84,0,0,3.74,4.99,15.46,3.71,11.6-1.26,20.1-8.98,20.1-8.98,0,0-4.61-48.08,0-55.33,3.35-5.26,16.04-15.35,23.26-21.77,2.74-2.43,4.7-4.33,5.06-5.24.95-2.37-3.9-16.66-6.69-24.5-.45-.9-.83-1.65-1.11-2.25-.55-1.15-.9-2.01-1.13-2.71l-4.36,2.18c.3,2.11.65,4.74,1,7.43,0,.01,0,.03,0,.05,1.1,5.35,2.39,12.26,2.47,15.34.01.49,0,.89-.06,1.17-.66,3.29-23.05,18.44-23.05,18.44,0,0-32.93,12.51-36.22,16.47-1.75,2.11-8.18,17.47-13.8,31.38-2.19,5.41-4.25,10.6-5.87,14.69-2.04,5.15-3.38,8.59-3.38,8.59Z"/>
    <path class="uuid-319f2f5f-29fd-4840-9236-e3a7f80fe9cf" d="m419.96,708.69c-1.27,1.02-2.55-1.53-3.82-.38-1.27,1.15,3.95,7.01,3.44,9.69-.51,2.68-6.5,4.72-10.2,0-3.7-4.72-7.9-8.16-.89-14.53,3.51-3.19,11.5-4.78,9.94-.64-.38,1.02,2.8,4.84,1.53,5.86Z"/>
  </g>
</svg>